<mxfile host="app.diagrams.net" agent="Mozilla/5.0 (Windows NT 10.0; Win64; x64) AppleWebKit/537.36 (KHTML, like Gecko) Chrome/139.0.0.0 Safari/537.36" version="28.0.9" pages="2">
  <diagram name="ml-model-setps" id="3_XTR7LkdYp_2Ps074NI">
    <mxGraphModel dx="1426" dy="777" grid="1" gridSize="10" guides="1" tooltips="1" connect="1" arrows="1" fold="1" page="1" pageScale="1" pageWidth="850" pageHeight="1100" math="0" shadow="0">
      <root>
        <mxCell id="0" />
        <mxCell id="1" parent="0" />
        <mxCell id="DQt-98oMIwoe8TSga23S-7" style="edgeStyle=orthogonalEdgeStyle;rounded=0;orthogonalLoop=1;jettySize=auto;html=1;exitX=1;exitY=0.5;exitDx=0;exitDy=0;entryX=0;entryY=0.5;entryDx=0;entryDy=0;" edge="1" parent="1" source="DQt-98oMIwoe8TSga23S-1" target="DQt-98oMIwoe8TSga23S-2">
          <mxGeometry relative="1" as="geometry" />
        </mxCell>
        <mxCell id="DQt-98oMIwoe8TSga23S-1" value="1. Obtain Data" style="rounded=0;whiteSpace=wrap;html=1;fontSize=14;" vertex="1" parent="1">
          <mxGeometry x="30" y="50" width="120" height="60" as="geometry" />
        </mxCell>
        <mxCell id="DQt-98oMIwoe8TSga23S-8" style="edgeStyle=orthogonalEdgeStyle;rounded=0;orthogonalLoop=1;jettySize=auto;html=1;entryX=0;entryY=0.5;entryDx=0;entryDy=0;" edge="1" parent="1" source="DQt-98oMIwoe8TSga23S-2" target="DQt-98oMIwoe8TSga23S-4">
          <mxGeometry relative="1" as="geometry" />
        </mxCell>
        <mxCell id="DQt-98oMIwoe8TSga23S-2" value="2. Clean Data" style="rounded=0;whiteSpace=wrap;html=1;fontSize=14;" vertex="1" parent="1">
          <mxGeometry x="220" y="50" width="120" height="60" as="geometry" />
        </mxCell>
        <mxCell id="DQt-98oMIwoe8TSga23S-11" style="edgeStyle=orthogonalEdgeStyle;rounded=0;orthogonalLoop=1;jettySize=auto;html=1;entryX=0;entryY=0.5;entryDx=0;entryDy=0;" edge="1" parent="1" source="DQt-98oMIwoe8TSga23S-3" target="DQt-98oMIwoe8TSga23S-6">
          <mxGeometry relative="1" as="geometry" />
        </mxCell>
        <mxCell id="DQt-98oMIwoe8TSga23S-3" value="5. Evaluate accuracy of Model" style="rounded=0;whiteSpace=wrap;html=1;fontSize=14;" vertex="1" parent="1">
          <mxGeometry x="810" y="50" width="120" height="60" as="geometry" />
        </mxCell>
        <mxCell id="DQt-98oMIwoe8TSga23S-9" style="edgeStyle=orthogonalEdgeStyle;rounded=0;orthogonalLoop=1;jettySize=auto;html=1;exitX=1;exitY=0.5;exitDx=0;exitDy=0;entryX=0;entryY=0.5;entryDx=0;entryDy=0;" edge="1" parent="1" source="DQt-98oMIwoe8TSga23S-4" target="DQt-98oMIwoe8TSga23S-5">
          <mxGeometry relative="1" as="geometry" />
        </mxCell>
        <mxCell id="DQt-98oMIwoe8TSga23S-4" value="3. Feature Engineering: Identify Features and Label" style="rounded=0;whiteSpace=wrap;html=1;fontSize=14;" vertex="1" parent="1">
          <mxGeometry x="425" y="50" width="140" height="60" as="geometry" />
        </mxCell>
        <mxCell id="DQt-98oMIwoe8TSga23S-10" style="edgeStyle=orthogonalEdgeStyle;rounded=0;orthogonalLoop=1;jettySize=auto;html=1;exitX=1;exitY=0.5;exitDx=0;exitDy=0;entryX=0;entryY=0.5;entryDx=0;entryDy=0;" edge="1" parent="1" source="DQt-98oMIwoe8TSga23S-5" target="DQt-98oMIwoe8TSga23S-3">
          <mxGeometry relative="1" as="geometry" />
        </mxCell>
        <mxCell id="DQt-98oMIwoe8TSga23S-5" value="4. Create a Model" style="rounded=0;whiteSpace=wrap;html=1;fontSize=14;" vertex="1" parent="1">
          <mxGeometry x="630" y="50" width="120" height="60" as="geometry" />
        </mxCell>
        <mxCell id="DQt-98oMIwoe8TSga23S-6" value="6. Deploy the model for use" style="rounded=0;whiteSpace=wrap;html=1;fontSize=14;" vertex="1" parent="1">
          <mxGeometry x="980" y="50" width="120" height="60" as="geometry" />
        </mxCell>
      </root>
    </mxGraphModel>
  </diagram>
  <diagram id="wAjlxf7I8Hhw0YtGtTpG" name="Page-2">
    <mxGraphModel dx="1426" dy="777" grid="1" gridSize="10" guides="1" tooltips="1" connect="1" arrows="1" fold="1" page="1" pageScale="1" pageWidth="850" pageHeight="1100" math="0" shadow="0">
      <root>
        <mxCell id="0" />
        <mxCell id="1" parent="0" />
      </root>
    </mxGraphModel>
  </diagram>
</mxfile>
